<?xml version="1.0" encoding="UTF-8"?>
<svg version="1.1" xmlns="http://www.w3.org/2000/svg" width="1500" height="1500">
<path d="M0 0 C189.42 0 378.84 0 574 0 C576.475 45.54 576.475 45.54 579 92 C581.26652624 127.75568718 581.26652624 127.75568718 583.62036133 163.50512695 C584.06421324 171.01266178 584.08867733 178.48230072 584 186 C579.3927142 186.85928229 574.7847309 187.7145032 570.17553711 188.56347656 C568.60883464 188.85289324 567.04242344 189.14389141 565.47631836 189.43652344 C563.22064373 189.85771641 560.96397074 190.27314522 558.70703125 190.6875 C558.01100296 190.81874268 557.31497467 190.94998535 556.59785461 191.08520508 C553.01988602 191.73611689 549.63775572 192.14785121 546 192 C545.68869141 190.82824219 545.68869141 190.82824219 545.37109375 189.6328125 C544.88374014 187.80166797 544.39609349 185.97059929 543.90527344 184.14038086 C542.73764957 179.78435887 541.5895459 175.42388504 540.45703125 171.05859375 C533.4419901 144.22057604 524.49156518 119.41751088 511.8125 94.75 C511.32555664 93.79730225 510.83861328 92.84460449 510.33691406 91.86303711 C506.21203689 83.98820812 501.54772878 77.06862668 495 71 C494.54625 70.54109375 494.0925 70.0821875 493.625 69.609375 C480.68595128 57.31727871 461.48219963 53.51513942 444.5 50.8125 C443.53610352 50.6575708 442.57220703 50.5026416 441.57910156 50.34301758 C417.89826371 46.85842136 394.14920342 46.68421933 370.27423787 46.69841743 C366.64782519 46.69950311 363.0214294 46.6945653 359.39502043 46.689812 C350.84349299 46.67881845 342.29200955 46.67822568 333.74047852 46.68432617 C324.95198989 46.69039906 316.16366001 46.67794816 307.37519842 46.6567561 C299.77798772 46.63911827 292.18082754 46.63314097 284.58359712 46.63639385 C280.0675845 46.63819853 275.55168602 46.63564963 271.03569221 46.62167931 C266.80250448 46.60906463 262.56956602 46.61107917 258.33638191 46.62409019 C256.79089268 46.6264451 255.24538562 46.62376052 253.69991684 46.61546707 C244.15757289 46.5679718 235.63201398 47.00424788 227.0625 51.5625 C216.2602214 64.32882926 220.82963906 92.49645984 220.79939139 108.08238351 C220.7912816 111.71471373 220.77762145 115.34702397 220.76467896 118.9793396 C220.74306395 125.25308661 220.72486588 131.52683579 220.70907402 137.80060005 C220.68623735 146.87110155 220.65811473 155.9415808 220.62875474 165.01206326 C220.58124651 179.7328858 220.53793762 194.45371751 220.49731445 209.17456055 C220.4578737 223.46363029 220.41642732 237.75269193 220.37231445 252.04174805 C220.36822804 253.36575513 220.36822804 253.36575513 220.36405908 254.71650983 C220.35037819 259.1451783 220.3366582 263.57384666 220.32291877 268.00251496 C220.20921784 304.6683264 220.10235097 341.33415521 220 378 C220.82407063 377.99506545 221.64814127 377.99013089 222.49718374 377.9850468 C223.67117225 377.97801693 224.84516077 377.97098706 226.05472469 377.96374416 C226.70215306 377.95986704 227.34958142 377.95598992 228.01662883 377.95199531 C231.71660381 377.92983849 235.41657883 377.90768712 239.1165539 377.88554442 C246.60415907 377.84072898 254.09176399 377.79587467 261.57936789 377.75084875 C265.78678833 377.7255488 269.99420894 377.70027619 274.20162964 377.67501831 C275.44824879 377.66753388 275.44824879 377.66753388 276.72005216 377.65989826 C287.32946343 377.59625107 297.93888131 377.53414323 308.54831636 377.47456968 C314.88766865 377.4387787 321.22699752 377.4000149 327.56631434 377.35840666 C331.32231229 377.33385518 335.07830704 377.31115186 338.83433533 377.29173279 C371.9863378 377.32374752 371.9863378 377.32374752 405 374.6875 C406.04196533 374.55633789 407.08393066 374.42517578 408.1574707 374.29003906 C425.19434588 372.01933787 443.27102575 367.54390256 455 354 C470.41743529 333.56691109 474.03534081 305.44139909 479 281 C491.54 281 504.08 281 517 281 C517 362.84 517 444.68 517 529 C504.46 529 491.92 529 479 529 C477.80375 523.3075 476.6075 517.615 475.375 511.75 C468.2454336 473.63823153 468.2454336 473.63823153 445.18359375 443.98046875 C416.38550567 426.1459292 376.69722528 429.69891281 344.05424404 429.59528303 C339.67278364 429.57934951 335.29138699 429.55266091 330.90997314 429.5272522 C322.66255142 429.48098694 314.41511696 429.44399509 306.16763425 429.41057932 C296.75720854 429.37198187 287.34684769 429.32267426 277.93647718 429.27259517 C258.62436597 429.17005536 239.31221486 429.08054887 220 429 C220.10515617 459.98975053 220.21496964 490.97948041 220.33111694 521.96919154 C220.34488344 525.64336064 220.358611 529.31752988 220.37231445 532.99169922 C220.37504276 533.72303638 220.37777106 534.45437353 220.38058204 535.20787242 C220.42443291 546.98712608 220.4651425 558.76638855 220.50465261 570.54565749 C220.54538679 582.66857901 220.5895861 594.79148449 220.63687855 606.91438222 C220.66328608 613.70830416 220.68819291 620.50222409 220.70907402 627.29616547 C220.72895985 633.71473886 220.75318788 640.13328239 220.78049088 646.55182838 C220.78969549 648.88471993 220.79742663 651.21761793 220.80341911 653.55051994 C220.83627453 665.97890852 221.01507318 678.39302307 221.43080139 690.81500244 C221.46663375 691.94337454 221.50246611 693.07174663 221.53938431 694.23431182 C222.43664075 718.71083538 225.14895602 745.26979758 241 765 C241.54914063 765.69867187 242.09828125 766.39734375 242.6640625 767.1171875 C258.92774036 785.5302501 289.84301323 787.73366525 312.625 789.625 C334.52945027 790.8391314 356.44050798 791.20434572 378.375 791.1875 C379.04348213 791.18738041 379.71196426 791.18726082 380.40070343 791.1871376 C466.32529805 792.77823232 466.32529805 792.77823232 540 754.4375 C560.33813344 733.89396433 574.63478081 706.85923735 587 681 C587.38124023 680.20706543 587.76248047 679.41413086 588.15527344 678.59716797 C594.99257752 664.27519218 600.67477867 649.63719061 606.01367188 634.69702148 C606.95997065 632.10945648 607.96292983 629.55236425 609 627 C636.35223796 630.07890069 636.35223796 630.07890069 649 632 C646.14701505 649.14290414 642.8375182 666.17104042 639.3125 683.1875 C639.03599364 684.52555195 638.75949432 685.86360536 638.48300171 687.20166016 C613.74446956 806.76659133 613.74446956 806.76659133 604 836 C399.07 836 194.14 836 -17 836 C-17 823.79 -17 811.58 -17 799 C-14.31617188 798.76925781 -11.63234375 798.53851562 -8.8671875 798.30078125 C41.84511725 795.89107704 41.84511725 795.89107704 87 776 C87.70898438 775.4534375 88.41796875 774.906875 89.1484375 774.34375 C105.30854574 760.22687384 107.2967181 735.89428755 108.81788749 715.94426145 C109.38756798 706.7340855 109.27328564 697.4989262 109.25396729 688.2754364 C109.25627688 685.8449085 109.25945673 683.41438131 109.26342177 680.98385555 C109.26998815 675.73774634 109.27046603 670.49167467 109.26532745 665.24556541 C109.25770666 657.44375135 109.26165872 649.64197159 109.26774407 641.84015769 C109.27823492 627.89860302 109.27737893 613.95706676 109.27158624 600.01551037 C109.26654132 587.81263842 109.26524813 575.60977319 109.26763153 563.40690041 C109.2677843 562.59526868 109.26793707 561.78363695 109.26809447 560.94741032 C109.26871722 557.65212573 109.26935403 554.35684114 109.270014 551.06155656 C109.27612309 520.18957505 109.27059954 489.31760523 109.2598202 458.44562553 C109.25033269 431.06538798 109.25117702 403.68516903 109.26074219 376.30493164 C109.27147095 345.49143734 109.27568703 314.67795334 109.26951766 283.86445743 C109.2688763 280.57448725 109.26825061 277.28451707 109.26763153 273.99454689 C109.2673943 272.77957543 109.2673943 272.77957543 109.26715227 271.54005909 C109.2648851 259.35205303 109.26752339 247.16405445 109.27259064 234.97604942 C109.2783295 221.10410798 109.2768365 207.23218772 109.26602915 193.36024889 C109.26019145 185.61336433 109.25972225 177.86652573 109.2673215 170.11964244 C109.27238694 164.31106862 109.26682503 158.50254139 109.25737235 152.69397483 C109.25515996 150.36242856 109.25622518 148.03087605 109.26112393 145.69933387 C110.09942544 99.36311166 110.09942544 99.36311166 90.296875 59.16796875 C68.92910551 38.56333389 27.65460297 39.58454233 0 37 C0 24.79 0 12.58 0 0 Z " fill="#000000" transform="translate(439,281)"/>
</svg>
